<?xml version="1.0" encoding="UTF-8"?>
<svg xmlns="http://www.w3.org/2000/svg" viewBox="0 0 24 24">
    <defs>
        <!-- Main body gradient -->
        <radialGradient id="virusGradient" cx="50%" cy="50%" r="50%">
            <stop offset="0%" stop-color="#1E3A5F"/>
            <stop offset="60%" stop-color="#152A45"/>
            <stop offset="100%" stop-color="#0A1A2F"/>
        </radialGradient>
        
        <!-- Glow effect -->
        <filter id="glow" x="-50%" y="-50%" width="200%" height="200%">
            <feGaussianBlur stdDeviation="0.5" result="coloredBlur"/>
            <feMerge>
                <feMergeNode in="coloredBlur"/>
                <feMergeNode in="SourceGraphic"/>
            </feMerge>
        </filter>
    </defs>

    <!-- Main virus body -->
    <circle cx="12" cy="12" r="6" 
            fill="url(#virusGradient)" 
            stroke="#234876" 
            stroke-width="1.5"
            filter="url(#glow)"
            opacity="0.3"/>
    
    <!-- Virus spikes -->
    <path d="M12 3L13 6M12 21L11 18M3 12L6 13M21 12L18 11M5 5L7.5 7.5M19 19L16.5 16.5M19 5L16.5 7.5M5 19L7.5 16.5" 
          stroke="#234876" 
          stroke-width="1.5" 
          stroke-linecap="round"
          opacity="0.2"/>
    
    <!-- Surface proteins (circles) -->
    <circle cx="14" cy="10" r="1.5" fill="#1E3A5F" stroke="#234876" stroke-width="1" opacity="0.3"/>
    <circle cx="10" cy="14" r="1.5" fill="#1E3A5F" stroke="#234876" stroke-width="1" opacity="0.3"/>
    <circle cx="10" cy="10" r="1" fill="#1E3A5F" opacity="0.3"/>
    <circle cx="14" cy="14" r="1" fill="#1E3A5F" opacity="0.3"/>
    
    <!-- Outer receptor sites -->
    <circle cx="20" cy="4" r="1" stroke="#234876" stroke-width="1" fill="none" opacity="0.2"/>
    <circle cx="4" cy="20" r="1" stroke="#234876" stroke-width="1" fill="none" opacity="0.2"/>
    <circle cx="4" cy="4" r="1" stroke="#234876" stroke-width="1" fill="none" opacity="0.2"/>
    <circle cx="20" cy="20" r="1" stroke="#234876" stroke-width="1" fill="none" opacity="0.2"/>
</svg>