<svg xmlns="http://www.w3.org/2000/svg" viewBox="0 0 24 24">
    <defs>
      <!-- Main body gradient -->
      <radialGradient id="virusGradient" cx="50%" cy="50%" r="50%">
        <stop offset="0%" stop-color="#FFFFFF"/>
        <stop offset="60%" stop-color="#F8FDFF"/>
        <stop offset="100%" stop-color="#E1F5FE"/>
      </radialGradient>
      
      <!-- Glow effect -->
      <filter id="glow" x="-50%" y="-50%" width="200%" height="200%">
        <feGaussianBlur stdDeviation="0.5" result="coloredBlur"/>
        <feMerge>
          <feMergeNode in="coloredBlur"/>
          <feMergeNode in="SourceGraphic"/>
        </feMerge>
      </filter>
    </defs>
  
    <!-- Main virus body -->
    <circle cx="12" cy="12" r="6" 
            fill="url(#virusGradient)" 
            stroke="#E1F5FE" 
            stroke-width="1.5"
            filter="url(#glow)"/>
    
    <!-- Virus spikes -->
    <path d="M12 3L13 6M12 21L11 18M3 12L6 13M21 12L18 11M5 5L7.5 7.5M19 19L16.5 16.5M19 5L16.5 7.5M5 19L7.5 16.5" 
          stroke="#F8FDFF" 
          stroke-width="1.5" 
          stroke-linecap="round"/>
    
    <!-- Surface proteins (circles) -->
    <circle cx="14" cy="10" r="1.5" fill="#FFFFFF" stroke="#E1F5FE" stroke-width="1"/>
    <circle cx="10" cy="14" r="1.5" fill="#FFFFFF" stroke="#E1F5FE" stroke-width="1"/>
    <circle cx="10" cy="10" r="1" fill="#FFFFFF"/>
    <circle cx="14" cy="14" r="1" fill="#FFFFFF"/>
    
    <!-- Outer receptor sites -->
    <circle cx="20" cy="4" r="1" stroke="#F8FDFF" stroke-width="1" fill="none"/>
    <circle cx="4" cy="20" r="1" stroke="#F8FDFF" stroke-width="1" fill="none"/>
    <circle cx="4" cy="4" r="1" stroke="#F8FDFF" stroke-width="1" fill="none"/>
    <circle cx="20" cy="20" r="1" stroke="#F8FDFF" stroke-width="1" fill="none"/>
</svg>